<svg aria-hidden="true" style="position: absolute; width: 0; height: 0; overflow: hidden;" version="1.1" xmlns="http://www.w3.org/2000/svg" xmlns:xlink="http://www.w3.org/1999/xlink">
<defs>
<symbol id="icon-minus" viewBox="0 0 82 32">
<path d="M0 28.069v-25.783h81.189v25.783h-81.189z"></path>
</symbol>
<symbol id="icon-plus" viewBox="0 0 32 32">
<path d="M11.815 31.483v-11.963h-11.815v-6.942h11.815v-11.963h7.237v11.963h11.815v6.942h-11.815v11.963h-7.237z"></path>
</symbol>
<symbol id="icon-amazon" viewBox="0 0 83 32">
<path fill="#f90" style="fill: var(--color1, #f90)" d="M51.101 25.205c-4.787 3.127-11.725 4.795-17.698 4.795-8.376 0-15.916-2.746-21.621-7.312-0.448-0.359-0.047-0.848 0.491-0.569 6.156 3.175 13.768 5.084 21.631 5.084 5.303 0 11.137-0.972 16.501-2.99 0.81-0.305 1.488 0.47 0.696 0.992z"></path>
<path fill="#f90" style="fill: var(--color1, #f90)" d="M53.091 23.187c-0.61-0.693-4.044-0.327-5.586-0.165-0.47 0.051-0.541-0.311-0.118-0.572 2.736-1.706 7.225-1.214 7.748-0.642 0.523 0.575-0.136 4.563-2.707 6.467-0.394 0.292-0.771 0.137-0.595-0.251 0.577-1.278 1.872-4.141 1.259-4.837z"></path>
<path fill="#000" style="fill: var(--color2, #000)" d="M47.612 10.402v-1.659c0-0.251 0.215-0.419 0.473-0.419h8.379c0.269 0 0.484 0.172 0.484 0.419v1.42c-0.004 0.238-0.229 0.55-0.631 1.042l-4.342 5.494c1.613-0.035 3.317 0.178 4.779 0.909 0.33 0.165 0.42 0.407 0.445 0.645v1.77c0 0.241-0.301 0.524-0.617 0.378-2.578-1.198-6.002-1.328-8.853 0.013-0.29 0.14-0.595-0.14-0.595-0.381v-1.681c0-0.27 0.004-0.731 0.308-1.141l5.030-6.394h-4.378c-0.269 0-0.484-0.168-0.484-0.416z"></path>
<path fill="#000" style="fill: var(--color2, #000)" d="M17.046 20.753h-2.549c-0.244-0.016-0.437-0.178-0.455-0.385v-11.596c0-0.232 0.219-0.416 0.491-0.416h2.377c0.247 0.010 0.445 0.178 0.463 0.388v1.516h0.047c0.62-1.465 1.786-2.148 3.356-2.148 1.596 0 2.592 0.683 3.309 2.148 0.617-1.465 2.019-2.148 3.521-2.148 1.068 0 2.237 0.391 2.951 1.268 0.807 0.976 0.642 2.393 0.642 3.635l-0.004 7.319c0 0.232-0.219 0.419-0.491 0.419h-2.546c-0.255-0.016-0.459-0.197-0.459-0.419v-6.146c0-0.489 0.050-1.71-0.072-2.174-0.19-0.779-0.76-0.998-1.499-0.998-0.617 0-1.262 0.365-1.524 0.95s-0.237 1.563-0.237 2.221v6.146c0 0.232-0.219 0.419-0.491 0.419h-2.546c-0.258-0.016-0.459-0.197-0.459-0.419l-0.004-6.146c0-1.293 0.24-3.197-1.57-3.197-1.832 0-1.76 1.856-1.76 3.197v6.146c0 0.232-0.219 0.419-0.491 0.419z"></path>
<path fill="#000" style="fill: var(--color2, #000)" d="M64.163 8.111c3.783 0 5.83 2.879 5.83 6.54 0 3.537-2.262 6.343-5.83 6.343-3.715 0-5.737-2.879-5.737-6.467 0-3.61 2.047-6.416 5.737-6.416zM64.184 10.479c-1.879 0-1.997 2.269-1.997 3.683 0 1.417-0.025 4.443 1.976 4.443 1.976 0 2.069-2.441 2.069-3.928 0-0.979-0.047-2.148-0.38-3.076-0.287-0.807-0.857-1.122-1.667-1.122z"></path>
<path fill="#000" style="fill: var(--color2, #000)" d="M74.898 20.753h-2.539c-0.255-0.016-0.459-0.197-0.459-0.419l-0.004-11.599c0.022-0.213 0.233-0.378 0.491-0.378h2.363c0.223 0.010 0.405 0.143 0.455 0.324v1.773h0.047c0.714-1.586 1.714-2.342 3.475-2.342 1.144 0 2.259 0.365 2.976 1.366 0.667 0.928 0.667 2.488 0.667 3.61v7.299c-0.029 0.203-0.24 0.365-0.491 0.365h-2.556c-0.233-0.016-0.427-0.168-0.452-0.365v-6.298c0-1.268 0.165-3.124-1.595-3.124-0.621 0-1.191 0.369-1.474 0.928-0.359 0.709-0.405 1.414-0.405 2.196v6.244c-0.004 0.232-0.226 0.419-0.499 0.419z"></path>
<path fill="#000" style="fill: var(--color2, #000)" d="M40.932 15.214v-0.489c-1.847 0-3.793 0.35-3.793 2.275 0 0.976 0.574 1.637 1.553 1.637 0.714 0 1.359-0.391 1.764-1.026 0.502-0.782 0.477-1.516 0.477-2.396zM43.503 20.721c-0.169 0.133-0.412 0.143-0.602 0.054-0.846-0.623-1-0.912-1.463-1.506-1.398 1.265-2.392 1.643-4.202 1.643-2.148 0-3.815-1.173-3.815-3.521 0-1.834 1.119-3.083 2.718-3.693 1.384-0.54 3.317-0.636 4.794-0.785v-0.292c0-0.537 0.047-1.173-0.312-1.637-0.308-0.416-0.904-0.588-1.431-0.588-0.972 0-1.836 0.442-2.047 1.357-0.043 0.203-0.212 0.404-0.445 0.413l-2.47-0.235c-0.208-0.041-0.441-0.191-0.38-0.473 0.566-2.657 3.277-3.457 5.701-3.457 1.241 0 2.861 0.292 3.84 1.125 1.241 1.026 1.122 2.396 1.122 3.886v3.521c0 1.058 0.495 1.522 0.961 2.094 0.161 0.203 0.197 0.448-0.011 0.601-0.52 0.385-1.445 1.1-1.954 1.5l-0.004-0.006z"></path>
<path fill="#000" style="fill: var(--color2, #000)" d="M7.512 15.214v-0.489c-1.843 0-3.79 0.35-3.79 2.275 0 0.976 0.57 1.637 1.549 1.637 0.717 0 1.359-0.391 1.764-1.026 0.502-0.782 0.477-1.516 0.477-2.396zM10.082 20.721c-0.169 0.133-0.412 0.143-0.602 0.054-0.846-0.623-0.997-0.912-1.463-1.506-1.398 1.265-2.388 1.643-4.202 1.643-2.144 0-3.815-1.173-3.815-3.521 0-1.834 1.122-3.082 2.718-3.693 1.384-0.54 3.317-0.636 4.794-0.785v-0.292c0-0.537 0.047-1.173-0.308-1.637-0.312-0.416-0.907-0.588-1.431-0.588-0.972 0-1.839 0.442-2.051 1.357-0.043 0.203-0.212 0.404-0.441 0.413l-2.474-0.235c-0.208-0.041-0.437-0.191-0.38-0.473 0.57-2.657 3.277-3.457 5.701-3.457 1.241 0 2.861 0.292 3.84 1.125 1.241 1.026 1.122 2.396 1.122 3.886v3.521c0 1.058 0.495 1.522 0.961 2.094 0.165 0.203 0.201 0.448-0.007 0.601-0.52 0.385-1.445 1.1-1.954 1.5l-0.007-0.006z"></path>
</symbol>
<symbol id="icon-Arrow-right" viewBox="0 0 32 32">
<path fill="#fff" style="fill: var(--color3, #fff)" d="M2.667 14c-1.105 0-2 0.895-2 2s0.895 2 2 2v-4zM30.748 17.414c0.781-0.781 0.781-2.047 0-2.829l-12.728-12.728c-0.781-0.781-2.047-0.781-2.828 0s-0.781 2.047 0 2.828l11.314 11.314-11.314 11.314c-0.781 0.781-0.781 2.047 0 2.828s2.047 0.781 2.828 0l12.728-12.728zM2.667 18h26.667v-4h-26.667v4z"></path>
</symbol>
<symbol id="icon-Arrow" viewBox="0 0 34 32">
<path d="M2 21.922c-1.148 0.663-1.541 2.131-0.878 3.278s2.131 1.541 3.278 0.878l-2.4-4.157zM33.231 8.621c0.343-1.28-0.417-2.596-1.697-2.939l-20.864-5.59c-1.28-0.343-2.596 0.417-2.939 1.697s0.417 2.596 1.697 2.939l18.546 4.969-4.969 18.546c-0.343 1.28 0.417 2.596 1.697 2.939s2.596-0.417 2.939-1.697l5.591-20.864zM4.4 26.078l27.713-16-2.4-4.157-27.713 16 2.4 4.157z"></path>
</symbol>
<symbol id="icon-dribble" viewBox="0 0 85 32">
<path d="M83.727 20.376c-3.503 5.265-9.053 3.737-10.719 2.541-0.709 0.427-1.953 1.361-3.611 1.253-3.532-0.23-4.797-4.703-4.797-4.703 0.025 0.018-1.052 0.329-1.634 0.324-0.007 1.312-1.287 4.445-4.74 4.405-3.875-0.045-4.662-5.161-4.662-5.161s-0.386 0.475-1.852 0.947c0.074-1.008 0.020 4.060-4.624 4.135-3.671 0.059-4.662-5.161-4.662-5.161s-0.637 0.586-1.871 0.79c0.078-1.024-0.049 4.388-4.694 4.371-3.139-0.012-4.211-3.215-4.128-3.66 0.106-0.567-1.061 3.74-4.11 3.673-1.258-0.033-2.196-0.84-2.785-1.916-0.788 0.799-1.932 1.916-3.215 1.916-2.304 0-3.319-1.708-3.147-6.585 0.015-0.578-0.032-0.806-0.681-0.892-0.389-0.058-0.788-0.167-1.21-0.224-0.135 0.4-1.282 7.571-5.227 7.707-1.323 0.046-2.047-0.97-2.641-1.724-0.911 1.068-2.113 1.758-3.826 1.758-2.902 0-4.879-2.079-4.879-4.644s1.977-4.644 4.879-4.644c0.513 0 0.657 0.065 1.126 0.186-0.964-7.778 1.312-8.994 3.304-8.994 1.912 0 5.178 3.933 0.582 13.908 1.020 2.975 3.22 2.807 4.277-3.318 0.215-1.245-0.36-2.925 0.535-3.16 1.636-0.429 1.809 0.857 2.576 1.071 0.811 0.226 1.284 0.204 2.063 0.348 1.33 0.23 1.849 0.864 1.687 2.274-0.195 1.785-0.535 4.382 0.503 4.699 0.749 0.23 2.115-1.146 2.355-1.899s0.29-1.010 0.311-1.563c0.032-1.18 0.073-2.045 0.3-2.938 0.097-0.345 0.208-0.574 0.649-0.59 0.363-0.008 1.026-0.105 1.318 0.096 0.389 0.259 0.341 0.522 0.296 1.214-0.453 9.869 3.031 4.942 4.070 0.998-0.37-4.461-0.116-11.062 3.038-11.172 1.64-0.058 2.365 1.107 2.445 1.976 0.226 2.455-1.038 6.522-2.7 9.257-0.95 5.581 4.153 6.684 4.969 2.23-1.335-0.563-2.778-2.84-1.604-3.95 0.659-0.623 3.401 0.272 3.446 2.223 1.345-0.319 1.525-0.992 1.544-0.881-0.37-4.461-0.027-10.746 3.127-10.856 1.64-0.058 2.365 1.107 2.445 1.976 0.226 2.455-1.038 6.522-2.7 9.257-0.95 5.581 4.153 6.684 4.969 2.23-0.988-0.169-3.075-2.591-1.871-3.95 0.643-0.726 3.376 0.784 3.682 2.288 1.292-0.324 1.468-0.976 1.486-0.866-0.37-4.461-0.027-10.745 3.127-10.856 1.64-0.058 2.365 1.107 2.445 1.976 0.226 2.455-1.038 6.522-2.7 9.257-0.95 5.581 4.153 6.684 4.969 2.229-1.358-0.2-3.289-2.758-1.735-4.066 0.621-0.523 2.993 0.834 3.548 2.382 0.771-0.026 1.252-0.262 1.355-0.286-1.232-5.237-0.315-11.52 3.078-11.572 1.834-0.028 3.627 0.879 2.84 5.861-0.751 4.753-3.451 6.748-3.445 6.779 0.157 0.569 1.543 5.335 5.032 2.821-0.181-0.362-0.361-0.733-0.463-1.181-0.578-2.613 0.558-5.565 3.645-6.042 1.769-0.273 3.435 0.49 3.699 2.211 0.433 2.816-2.435 4.855-3.526 5.297-0.489-0.246 4.429 2.549 7.347-3.053 0.169-0.32 0.373-0.293 0.637-0.128 0.187 0.116 1.25 1.009 0.755 1.765zM7.001 18.834c-0.148-0.393-0.453-1.26-0.561-1.636-0.593-0.457-1.017-0.532-1.779-0.532-1.693 0-2.689 1.387-2.689 2.883s1.086 2.883 2.779 2.883c1.467 0 2.584-0.884 2.924-2.136-0.238-0.488-0.475-0.936-0.674-1.463zM9.279 8.134c-1.19 0-1.593 2.515-1.515 4.661 0.069 1.897 0.667 3.567 0.978 4.315 0.079 0.094 0.064 0.033 0.134 0.132 2.065-4.011 1.209-9.108 0.403-9.108zM34.050 8.213c-1.537-0.156-1.528 5.52-1.337 6.793 0.798-1.132 2.186-6.489 1.337-6.793zM45.277 8.213c-1.537-0.156-1.528 5.52-1.337 6.793 0.798-1.132 2.186-6.489 1.337-6.793zM56.415 8.292c-1.538-0.156-1.528 5.52-1.337 6.794 0.798-1.132 2.186-6.489 1.337-6.794zM67.375 7.881c-2.395 0.426-1.838 7.505-1.474 8.746 2.822-3.435 2.88-8.875 1.474-8.746zM76.352 16.727c-0.121-0.451-0.731-0.693-1.151-0.633-1.203 0.146-2.369 1.473-1.918 3.494 0.101 0.45 0.352 0.865 0.348 0.851 2.692-1.601 2.921-2.862 2.721-3.712zM25.629 13.348c0.228 0 0.454-0.040 0.665-0.117s0.402-0.191 0.564-0.334c0.161-0.143 0.289-0.313 0.377-0.5s0.132-0.387 0.132-0.589c0-0.305-0.102-0.603-0.293-0.856s-0.462-0.451-0.78-0.567c-0.318-0.117-0.667-0.147-1.004-0.088s-0.647 0.206-0.89 0.422c-0.243 0.215-0.409 0.49-0.476 0.789s-0.033 0.609 0.099 0.89 0.354 0.522 0.64 0.691c0.286 0.169 0.622 0.26 0.966 0.259z"></path>
</symbol>
<symbol id="icon-facebook" viewBox="0 0 32 32">
<path fill="#fff" style="fill: var(--color3, #fff)" d="M32 16.097c0-8.893-7.161-16.097-16-16.097s-16 7.205-16 16.097c0 8.049 5.806 14.734 13.484 15.903v-11.229h-4.065v-4.673h4.064v-3.505c0-4.024 2.387-6.296 6-6.296 1.806 0 3.613 0.325 3.613 0.325v3.959h-2c-2 0-2.645 1.233-2.645 2.531v2.986h4.452l-0.71 4.673h-3.742v11.229c7.677-1.168 13.548-7.854 13.548-15.903z"></path>
</symbol>
<symbol id="icon-hubspot" viewBox="0 0 86 32">
<path fill="#33475b" style="fill: var(--color5, #33475b)" d="M9.454 8.738v6.059h-6.278v-6.059h-2.981v14.462h2.981v-5.862h6.278v5.862h2.981v-14.462h-2.981z"></path>
<path fill="#33475b" style="fill: var(--color5, #33475b)" d="M21.973 18.525c0 0.58-0.26 1.135-0.722 1.545s-1.090 0.64-1.744 0.64c-0.654 0-1.281-0.23-1.744-0.64s-0.722-0.966-0.722-1.545v-6.194h-2.827v6.194c0 1.243 0.557 2.435 1.549 3.314s2.337 1.373 3.739 1.373 2.747-0.494 3.739-1.373c0.992-0.879 1.549-2.071 1.549-3.314v-6.194h-2.817v6.194z"></path>
<path fill="#33475b" style="fill: var(--color5, #33475b)" d="M42.921 12.969c0-1.27 0.948-1.672 1.986-1.672 0.837 0 1.942 0.564 2.665 1.249l1.852-1.934c-0.924-1.108-2.799-1.874-4.334-1.874-3.067 0-5.285 1.592-5.285 4.231 0 4.896 6.753 3.343 6.753 6.083 0 0.845-0.926 1.592-1.986 1.592-1.672 0-2.214-0.725-2.982-1.491l-2.055 1.894c1.314 1.43 2.935 2.156 4.878 2.156 2.913 0 5.257-1.611 5.257-4.13 0-5.436-6.753-3.747-6.753-6.104z"></path>
<path fill="#33475b" style="fill: var(--color5, #33475b)" d="M84.695 20.889c-1.671 0-2.145-0.641-2.145-1.622v-4.342h2.597v-2.2h-2.597v-2.903l-2.866 1.14v8.845c0 2.262 1.761 3.403 4.176 3.403 0.379 0.006 0.757-0.021 1.131-0.080l0.699-2.282c-0.315 0.019-0.677 0.039-0.995 0.039z"></path>
<path fill="#33475b" style="fill: var(--color5, #33475b)" d="M32.735 12.403c-1.4 0-2.377 0.36-3.322 1.182v-4.76h-2.832v8.823c0 3.303 2.694 5.565 5.722 5.565 3.359 0 6.313-2.302 6.313-5.404 0-3.062-2.719-5.405-5.881-5.405v-0.001zM32.717 20.688c-0.635 0-1.257-0.167-1.785-0.48s-0.94-0.758-1.183-1.278c-0.243-0.52-0.307-1.093-0.183-1.645s0.43-1.060 0.879-1.458c0.449-0.398 1.022-0.669 1.645-0.779s1.269-0.053 1.856 0.162c0.587 0.215 1.089 0.58 1.442 1.049s0.541 1.019 0.541 1.582c0 0.755-0.338 1.479-0.941 2.013s-1.42 0.834-2.272 0.834z"></path>
<path fill="#33475b" style="fill: var(--color5, #33475b)" d="M63.481 17.677c0-3.106-2.948-5.404-6.313-5.404-3.027 0-5.722 2.262-5.722 5.565v8.828h2.832v-4.767c0.943 0.821 1.922 1.182 3.321 1.182 3.162 0 5.881-2.341 5.881-5.405h0.001zM60.799 17.646c0 0.563-0.188 1.114-0.541 1.582s-0.855 0.833-1.442 1.049c-0.587 0.215-1.233 0.272-1.856 0.162s-1.196-0.381-1.645-0.779c-0.449-0.398-0.755-0.906-0.879-1.458s-0.060-1.125 0.183-1.645c0.243-0.52 0.655-0.965 1.183-1.278s1.149-0.48 1.785-0.48c0.852 0 1.669 0.3 2.272 0.834s0.941 1.258 0.941 2.013z"></path>
<path fill="#ff7a59" style="fill: var(--color6, #ff7a59)" d="M72.6 12.233v-2.495c0.372-0.154 0.687-0.399 0.908-0.705s0.34-0.663 0.342-1.027v-0.058c-0.002-0.509-0.231-0.996-0.636-1.356s-0.956-0.562-1.53-0.564h-0.065c-0.574 0.001-1.124 0.204-1.53 0.564s-0.634 0.847-0.636 1.356v0.058c0.002 0.364 0.121 0.72 0.342 1.027s0.536 0.551 0.908 0.705v2.495c-1.069 0.145-2.077 0.538-2.921 1.139l-7.731-5.331c0.055-0.176 0.085-0.357 0.088-0.54 0.001-0.428-0.142-0.847-0.41-1.203s-0.649-0.634-1.095-0.799c-0.446-0.164-0.937-0.208-1.411-0.125s-0.91 0.289-1.252 0.591c-0.342 0.302-0.575 0.688-0.67 1.108s-0.047 0.855 0.137 1.251c0.184 0.396 0.497 0.734 0.899 0.973s0.874 0.366 1.357 0.366c0.424-0.001 0.841-0.102 1.208-0.291l7.601 5.244c-0.685 0.915-1.042 1.993-1.025 3.091s0.407 2.166 1.12 3.065l-2.313 2.050c-0.186-0.052-0.379-0.080-0.574-0.083-0.397 0-0.785 0.104-1.116 0.3s-0.588 0.473-0.74 0.799c-0.152 0.325-0.192 0.683-0.114 1.028s0.269 0.662 0.55 0.911c0.281 0.249 0.639 0.418 1.028 0.487s0.793 0.033 1.16-0.101c0.367-0.135 0.681-0.363 0.901-0.655s0.338-0.637 0.338-0.989c-0.003-0.173-0.034-0.344-0.093-0.509l2.288-2.028c0.747 0.506 1.615 0.853 2.537 1.017s1.873 0.138 2.782-0.075c0.909-0.212 1.751-0.606 2.462-1.151s1.272-1.227 1.641-1.993c0.369-0.766 0.535-1.597 0.485-2.429s-0.312-1.643-0.769-2.371c-0.457-0.728-1.095-1.354-1.866-1.83s-1.655-0.79-2.584-0.917zM71.652 20.441c-0.626 0-1.238-0.165-1.759-0.473s-0.927-0.747-1.166-1.259c-0.24-0.513-0.303-1.077-0.181-1.621s0.424-1.044 0.867-1.437 1.007-0.66 1.621-0.768c0.614-0.108 1.251-0.053 1.829 0.16s1.073 0.572 1.421 1.033 0.533 1.004 0.533 1.559c0 0.744-0.333 1.458-0.927 1.984s-1.399 0.822-2.239 0.822z"></path>
</symbol>
<symbol id="icon-linkedin" viewBox="0 0 32 32">
<path fill="#b9ff66" style="fill: var(--color4, #b9ff66)" d="M0.598 32h6.579v-21.3h-6.579v21.3z"></path>
<path fill="#b9ff66" style="fill: var(--color4, #b9ff66)" d="M0 3.9c0 2.1 1.695 3.8 3.888 3.8 2.093 0 3.788-1.7 3.788-3.8s-1.695-3.9-3.788-3.9c-2.193 0-3.888 1.8-3.888 3.9z"></path>
<path fill="#b9ff66" style="fill: var(--color4, #b9ff66)" d="M25.321 32h6.679v-11.7c0-5.7-1.296-10.2-7.975-10.2-3.19 0-5.383 1.8-6.28 3.5h-0.1v-2.9h-6.28v21.3h6.579v-10.5c0-2.8 0.498-5.5 3.988-5.5 3.389 0 3.389 3.2 3.389 5.6v10.4z"></path>
</symbol>
<symbol id="icon-netflix" viewBox="0 0 84 32">
<path d="M11.667 25.378c-1.256 0.195-2.534 0.254-3.856 0.41l-4.033-10.469v10.918c-1.256 0.117-2.402 0.273-3.592 0.43v-20h3.35l4.584 11.348v-11.348h3.548v18.711zM18.609 13.991c1.366 0 3.46-0.059 4.716-0.059v3.125c-1.565 0-3.394 0-4.716 0.059v4.649c2.072-0.117 4.143-0.274 6.236-0.332v3.008l-9.762 0.684v-18.457h9.762v3.125h-6.236v4.199zM37.958 9.792h-3.658v14.375c-1.19 0-2.38 0-3.526 0.039v-14.414h-3.658v-3.125h10.842l-0 3.125zM43.687 13.776h4.826v3.125h-4.826v7.090h-3.46v-17.324h9.851v3.125h-6.391v3.984zM55.808 21.257c2.005 0.039 4.033 0.176 5.994 0.273v3.086c-3.151-0.176-6.303-0.351-9.52-0.41v-17.539h3.526v14.59zM64.777 24.831c1.124 0.059 2.314 0.117 3.46 0.234v-18.398h-3.46v18.164zM83.685 6.667l-4.473 9.512 4.473 10.488c-1.322-0.156-2.645-0.371-3.967-0.566l-2.534-5.781-2.579 5.313c-1.278-0.195-2.512-0.254-3.79-0.41l4.539-9.16-4.099-9.394h3.79l2.314 5.254 2.468-5.254h3.857z"></path>
</symbol>
<symbol id="icon-notion" viewBox="0 0 98 32">
<path d="M34.35 23.183v-9.703h0.195l7.969 9.703h2.508v-14.25h-2.786v9.679h-0.195l-7.969-9.679h-2.508v14.25h2.786zM52.908 23.403c3.678 0 5.935-2.102 5.935-5.622 0-3.495-2.257-5.622-5.935-5.622-3.65 0-5.935 2.126-5.935 5.622 0.028 3.52 2.257 5.622 5.935 5.622zM52.908 21.35c-1.951 0-3.065-1.295-3.065-3.568 0-2.249 1.115-3.568 3.065-3.568s3.065 1.32 3.065 3.568c0 2.273-1.115 3.568-3.065 3.568zM61.379 9.74v2.713h-1.951v1.955h1.951v5.89c0 2.102 1.115 2.933 3.957 2.933 0.529 0 1.059-0.049 1.477-0.122v-1.906c-0.335 0.024-0.558 0.049-0.948 0.049-1.17 0-1.7-0.464-1.7-1.54v-5.304h2.647v-1.955h-2.647v-2.713h-2.786zM68.484 23.183h2.787v-10.803h-2.787v10.803zM69.877 10.596c0.92 0 1.672-0.66 1.672-1.467 0-0.831-0.752-1.491-1.672-1.491s-1.672 0.66-1.672 1.491c0 0.807 0.753 1.467 1.672 1.467zM78.905 23.403c3.679 0 5.935-2.102 5.935-5.622 0-3.495-2.257-5.622-5.935-5.622-3.65 0-5.935 2.126-5.935 5.622 0 3.52 2.229 5.622 5.935 5.622zM78.905 21.35c-1.95 0-3.065-1.295-3.065-3.568 0-2.249 1.115-3.568 3.065-3.568 1.923 0 3.065 1.32 3.065 3.568-0.028 2.273-1.143 3.568-3.065 3.568zM86.485 23.183h2.787v-6.282c0-1.589 1.059-2.591 2.703-2.591 1.7 0 2.48 0.831 2.48 2.469v6.404h2.787v-6.99c0-2.591-1.505-4.033-4.235-4.033-1.839 0-3.065 0.733-3.651 1.955h-0.195v-1.735h-2.703c0.028 0 0.028 10.803 0.028 10.803z"></path>
<path d="M4.846 8.022c0.811 0.58 1.104 0.534 2.623 0.443l14.305-0.763c0.311 0 0.052-0.275-0.052-0.305l-2.381-1.511c-0.449-0.305-1.070-0.671-2.226-0.58l-13.839 0.9c-0.5 0.046-0.604 0.275-0.397 0.443l1.967 1.373zM5.709 10.967v13.306c0 0.717 0.397 0.977 1.311 0.931l15.72-0.809c0.915-0.046 1.018-0.534 1.018-1.114v-13.215c0-0.58-0.259-0.9-0.811-0.855l-16.427 0.855c-0.604 0.046-0.811 0.32-0.811 0.9zM21.221 11.684c0.104 0.397 0 0.809-0.449 0.855l-0.759 0.137v9.827c-0.656 0.305-1.26 0.488-1.777 0.488-0.811 0-1.018-0.229-1.622-0.9l-4.952-6.882v6.653l1.57 0.305c0 0 0 0.809-1.26 0.809l-3.486 0.183c-0.104-0.183 0-0.626 0.345-0.717l0.915-0.229v-8.79l-1.26-0.092c-0.104-0.397 0.155-0.977 0.863-1.022l3.744-0.229 5.159 6.958v-6.15l-1.311-0.137c-0.104-0.488 0.311-0.855 0.811-0.9l3.468-0.168zM2.12 4.985l14.408-0.931c1.76-0.137 2.226-0.046 3.33 0.671l4.59 2.854c0.759 0.488 1.018 0.626 1.018 1.16v15.672c0 0.977-0.397 1.556-1.812 1.648l-16.72 0.9c-1.070 0.046-1.57-0.092-2.122-0.717l-3.399-3.891c-0.604-0.717-0.863-1.251-0.863-1.877v-13.932c0-0.809 0.414-1.465 1.57-1.556z"></path>
</symbol>
<symbol id="icon-star" viewBox="0 0 32 32">
<path fill="#000" style="fill: var(--color3, #000)" d="M16.023 4.707l15.977-4.707-4.662 16.023 4.662 15.977-15.977-4.662-16.023 4.662 4.707-15.977-4.707-16.023 16.023 4.707z"></path>
</symbol>
<symbol id="icon-twitter" viewBox="0 0 36 32">
<path d="M31.992 8.983c1.379-1.034 2.619-2.275 3.585-3.722-1.241 0.551-2.688 0.965-4.136 1.103 1.516-0.896 2.619-2.275 3.171-3.998-1.379 0.827-2.964 1.448-4.55 1.792-1.379-1.448-3.24-2.275-5.308-2.275-3.998 0-7.238 3.24-7.238 7.238 0 0.551 0.069 1.103 0.207 1.654-5.997-0.345-11.374-3.24-14.959-7.583-0.62 1.034-0.965 2.275-0.965 3.653 0 2.482 1.241 4.688 3.24 5.997-1.172-0.069-2.344-0.345-3.309-0.896v0.069c0 3.516 2.482 6.411 5.79 7.1-0.551 0.138-1.241 0.276-1.861 0.276-0.483 0-0.896-0.069-1.379-0.138 0.896 2.895 3.585 4.963 6.755 5.032-2.482 1.93-5.584 3.102-8.961 3.102-0.62 0-1.172-0.069-1.723-0.138 3.171 2.068 6.962 3.24 11.098 3.24 13.304 0 20.542-10.961 20.542-20.542 0-0.345 0-0.62 0-0.965z"></path>
</symbol>
<symbol id="icon-zoom" viewBox="0 0 74 32">
<path fill="rgb(120, 120, 120)" d="M60.24 13.731c-0.291-0.445-0.708-0.815-1.211-1.072s-1.073-0.392-1.653-0.393c-0.58 0-1.15 0.135-1.652 0.392s-0.921 0.625-1.212 1.070c-0.282 0.434-0.369 0.92-0.404 1.474l-0.041 0.734v5.131l-0.044 0.735c-0.054 1.218-1.055 2.081-2.44 2.162l-0.828 0.036v-14.666c0.828 0 2.27 0.37 2.915 1.008 1.056-0.638 2.332-1.008 3.706-1.008 0.939-0 1.868 0.177 2.724 0.52s1.62 0.843 2.241 1.468c0.62-0.625 1.384-1.126 2.24-1.469s1.785-0.52 2.725-0.519c1.755 0.001 3.439 0.619 4.679 1.719s1.938 2.592 1.938 4.148v8.798l-0.825-0.036c-1.368-0.069-2.359-0.956-2.443-2.162l-0.041-0.735v-5.133l-0.041-0.732c-0.034-0.538-0.121-1.037-0.403-1.468-0.289-0.446-0.706-0.816-1.207-1.074s-1.072-0.394-1.652-0.395-1.15 0.133-1.653 0.39c-0.503 0.256-0.921 0.625-1.212 1.070-0.286 0.433-0.377 0.932-0.411 1.477l-0.041 0.734v8.064l-0.824-0.036c-1.364-0.075-2.362-0.962-2.444-2.162l-0.041-0.735v-5.131l-0.040-0.734c-0.030-0.551-0.122-1.040-0.404-1.471zM3.593 23.965v-0.001c-1.374-0.078-2.359-0.953-2.44-2.162l-0.041-0.734 9.927-8.801h-7.445l-0.829-0.036c-1.354-0.069-2.331-0.969-2.439-2.163l-0.041-0.734 12.41 0.003 0.828 0.033c1.372 0.067 2.376 0.947 2.44 2.165l0.041 0.731-9.927 8.801h7.445l0.828 0.036c1.365 0.079 2.328 0.959 2.44 2.165l0.041 0.731h-12.41l-0.828-0.035zM47.506 11.481v0.001c-0.769-0.682-1.682-1.222-2.687-1.591s-2.082-0.558-3.17-0.557c-1.086 0-2.161 0.19-3.164 0.558s-1.915 0.908-2.682 1.589c-3.231 2.864-3.231 7.507 0 10.371 1.553 1.375 3.657 2.147 5.852 2.147s4.3-0.772 5.852-2.147c0.768-0.681 1.378-1.489 1.794-2.379s0.63-1.843 0.63-2.806c0-0.963-0.214-1.917-0.63-2.806s-1.025-1.698-1.794-2.379zM45.165 13.557c0.931 0.825 1.453 1.945 1.453 3.112s-0.523 2.286-1.453 3.111c-0.931 0.825-2.194 1.288-3.511 1.288s-2.579-0.463-3.511-1.288c-0.931-0.825-1.453-1.945-1.453-3.111s0.523-2.286 1.453-3.112c0.931-0.825 2.194-1.288 3.511-1.288s2.579 0.463 3.511 1.288zM24.284 9.333h-0.010c-1.086 0-2.161 0.19-3.164 0.558s-1.915 0.908-2.682 1.589c-3.231 2.864-3.231 7.507 0 10.371 1.553 1.375 3.657 2.147 5.852 2.147s4.3-0.772 5.852-2.147c3.232-2.863 3.232-7.507 0-10.37-0.768-0.681-1.679-1.221-2.682-1.59s-2.079-0.558-3.165-0.559zM27.789 13.556c0.931 0.825 1.454 1.945 1.454 3.112s-0.523 2.286-1.454 3.112c-0.931 0.825-2.194 1.288-3.511 1.288s-2.579-0.463-3.511-1.288c-0.931-0.825-1.453-1.945-1.453-3.112s0.523-2.286 1.453-3.112c0.931-0.825 2.194-1.288 3.511-1.288s2.579 0.463 3.511 1.288v-0.001z"></path>
</symbol>
</defs>
</svg>
